{"accessors":[{"bufferView":0,"componentType":5126,"count":36,"max":[5.0,0.125,5.0],"min":[-5.0,-0.125,-5.0],"normalized":false,"type":"VEC3"},{"bufferView":1,"componentType":5126,"count":36,"max":[0.0,0.0,0.0000763009302318096,-1.0],"min":[-1.0,-1.0,-1.0,-1.0],"normalized":false,"type":"VEC4"},{"bufferView":2,"componentType":5126,"count":36,"max":[1.0,1.0,1.0],"min":[-1.0,-1.0,-1.0],"normalized":false,"type":"VEC3"},{"bufferView":3,"componentType":5126,"count":36,"max":[1.0,1.0],"min":[0.0,0.0],"normalized":false,"type":"VEC2"},{"bufferView":4,"componentType":5123,"count":36,"max":[35.0],"min":[0.0],"normalized":false,"type":"SCALAR"},{"bufferView":5,"componentType":5126,"count":540,"max":[2.5,4.13292360305786,0.125],"min":[-2.5,-1.0,-7.20720672607422],"normalized":false,"type":"VEC3"},{"bufferView":6,"componentType":5126,"count":540,"max":[0.947919130325317,0.975879073143005,0.000100816585472785,1.0],"min":[-1.0,-1.0,-1.0,-1.0],"normalized":false,"type":"VEC4"},{"bufferView":7,"componentType":5126,"count":540,"max":[1.0,1.0,1.0],"min":[-1.0,-1.0,-1.0],"normalized":false,"type":"VEC3"},{"bufferView":8,"componentType":5126,"count":540,"max":[1.0,1.0],"min":[0.0,0.0],"normalized":false,"type":"VEC2"},{"bufferView":9,"componentType":5123,"count":540,"max":[539.0],"min":[0.0],"normalized":false,"type":"SCALAR"}],"asset":{"generator":"Godot Engine v4.5.stable.official@876b290332ec6f2e6d173d08162a02aa7e6ca46d","version":"2.0"},"bufferViews":[{"buffer":0,"byteLength":432,"byteStride":12,"target":34962},{"buffer":0,"byteLength":576,"byteOffset":432,"byteStride":16,"target":34962},{"buffer":0,"byteLength":432,"byteOffset":1008,"byteStride":12,"target":34962},{"buffer":0,"byteLength":288,"byteOffset":1440,"byteStride":8,"target":34962},{"buffer":0,"byteLength":72,"byteOffset":1728,"target":34963},{"buffer":0,"byteLength":6480,"byteOffset":1800,"byteStride":12,"target":34962},{"buffer":0,"byteLength":8640,"byteOffset":8280,"byteStride":16,"target":34962},{"buffer":0,"byteLength":6480,"byteOffset":16920,"byteStride":12,"target":34962},{"buffer":0,"byteLength":4320,"byteOffset":23400,"byteStride":8,"target":34962},{"buffer":0,"byteLength":1080,"byteOffset":27720,"target":34963}],"buffers":[{"byteLength":28800,"uri":"cena0GODOT0.bin"}],"extensionsUsed":["GODOT_single_root"],"materials":[{},{}],"meshes":[{"primitives":[{"attributes":{"NORMAL":2,"POSITION":0,"TANGENT":1,"TEXCOORD_0":3},"indices":4,"material":0,"mode":4}]},{"primitives":[{"attributes":{"NORMAL":7,"POSITION":5,"TANGENT":6,"TEXCOORD_0":8},"indices":9,"material":1,"mode":4}]}],"nodes":[{"children":[1,2],"name":"main"},{"mesh":0,"name":"CSGBox3Dchao2"},{"children":[3,4,5,6,7,8,9],"mesh":1,"name":"CSGCombiner3D2","translation":[0.0,1.0,3.41553831100464]},{"name":"CSGBox3D","translation":[0.0,0.0,-3.41553831100464]},{"name":"CSGBox3D2"},{"name":"CSGBox3D3","translation":[0.0,0.0,-7.08220672607422]},{"name":"CSGBox3D4","translation":[0.327569842338562,1.63292360305786,-1.58899998664856]},{"name":"CSGBox3D5","rotation":[0.0,-0.223768979310989,0.0,0.974642217159271],"translation":[1.03059709072113,1.63292360305786,-1.58899998664856]},{"name":"CSGBox3D6","rotation":[0.0,-0.223768979310989,0.0,0.974642217159271],"translation":[-0.707668781280518,1.63292360305786,-1.58899998664856]},{"name":"CSGCylinder3D","rotation":[-0.691503167152405,-0.14772792160511,0.147727936506271,0.69150298833847],"scale":[1.58691024780273,4.17141342163086,1.88789343833923],"translation":[-0.0911855697631836,-0.205057740211487,-3.16625642776489]}],"scene":0,"scenes":[{"nodes":[0]}]}