{"accessors":[{"bufferView":0,"componentType":5126,"count":456,"max":[2.05628037452698,2.0516881942749,-0.880710005760193],"min":[-0.329964518547058,-0.937238454818726,-4.13209247589111],"normalized":false,"type":"VEC3"},{"bufferView":1,"componentType":5126,"count":456,"max":[1.0,0.666705131530762,0.581654369831085,1.0],"min":[-1.0,-0.66677725315094,-1.0,1.0],"normalized":false,"type":"VEC4"},{"bufferView":2,"componentType":5126,"count":456,"max":[0.979806005954742,1.0,1.0],"min":[-0.981496334075928,-0.999580681324005,-1.0],"normalized":false,"type":"VEC3"},{"bufferView":3,"componentType":5126,"count":456,"max":[1.0,1.0],"min":[0.0,0.0],"normalized":false,"type":"VEC2"},{"bufferView":4,"componentType":5123,"count":456,"max":[455.0],"min":[0.0],"normalized":false,"type":"SCALAR"},{"bufferView":5,"componentType":5126,"count":72,"max":[2.5,2.5,2.5],"min":[-2.5,-2.5,-2.5],"normalized":false,"type":"VEC3"},{"bufferView":6,"componentType":5126,"count":72,"max":[0.707117557525635,0.0,0.70710676908493,1.0],"min":[-0.707149922847748,-0.0000215795153053477,-0.707095980644226,1.0],"normalized":false,"type":"VEC4"},{"bufferView":7,"componentType":5126,"count":72,"max":[0.678624510765076,0.862879574298859,0.678629279136658],"min":[-0.678642749786377,-0.862879574298859,-0.678636014461517],"normalized":false,"type":"VEC3"},{"bufferView":8,"componentType":5126,"count":72,"max":[1.0,1.0],"min":[0.0,0.0],"normalized":false,"type":"VEC2"},{"bufferView":9,"componentType":5123,"count":72,"max":[71.0],"min":[0.0],"normalized":false,"type":"SCALAR"}],"asset":{"generator":"Godot Engine v4.5.stable.official@876b290332ec6f2e6d173d08162a02aa7e6ca46d","version":"2.0"},"bufferViews":[{"buffer":0,"byteLength":5472,"byteStride":12,"target":34962},{"buffer":0,"byteLength":7296,"byteOffset":5472,"byteStride":16,"target":34962},{"buffer":0,"byteLength":5472,"byteOffset":12768,"byteStride":12,"target":34962},{"buffer":0,"byteLength":3648,"byteOffset":18240,"byteStride":8,"target":34962},{"buffer":0,"byteLength":912,"byteOffset":21888,"target":34963},{"buffer":0,"byteLength":864,"byteOffset":22800,"byteStride":12,"target":34962},{"buffer":0,"byteLength":1152,"byteOffset":23664,"byteStride":16,"target":34962},{"buffer":0,"byteLength":864,"byteOffset":24816,"byteStride":12,"target":34962},{"buffer":0,"byteLength":576,"byteOffset":25680,"byteStride":8,"target":34962},{"buffer":0,"byteLength":144,"byteOffset":26256,"target":34963}],"buffers":[{"byteLength":26400,"uri":"main_teste_ilha0.bin"}],"extensionsUsed":["GODOT_single_root"],"materials":[{},{}],"meshes":[{"primitives":[{"attributes":{"NORMAL":2,"POSITION":0,"TANGENT":1,"TEXCOORD_0":3},"indices":4,"material":0,"mode":4}]},{"primitives":[{"attributes":{"NORMAL":7,"POSITION":5,"TANGENT":6,"TEXCOORD_0":8},"indices":9,"material":1,"mode":4}]}],"nodes":[{"children":[1,4],"name":"main"},{"children":[2,3],"mesh":0,"name":"CSGCombiner3D2","translation":[0.0,1.0,3.41553831100464]},{"name":"CSGPolygon3D","translation":[0.0,0.00466132164001465,-3.88209271430969]},{"name":"CSGPolygon3D2","rotation":[0.154491141438484,-0.404424071311951,-0.321676760911942,0.842079401016235],"scale":[1.31251585483551,1.87389814853668,1.08646619319916],"translation":[0.319001793861389,0.223547697067261,-2.78504753112793]},{"mesh":1,"name":"CSGSphere3D2","scale":[1.0,0.388772130012512,1.0]}],"scene":0,"scenes":[{"nodes":[0]}]}