{"accessors":[{"bufferView":0,"componentType":5126,"count":36,"max":[5.0,0.125,5.0],"min":[-5.0,-0.125,-5.0],"normalized":false,"type":"VEC3"},{"bufferView":1,"componentType":5126,"count":36,"max":[0.0,0.0,0.0000763009302318096,-1.0],"min":[-1.0,-1.0,-1.0,-1.0],"normalized":false,"type":"VEC4"},{"bufferView":2,"componentType":5126,"count":36,"max":[1.0,1.0,1.0],"min":[-1.0,-1.0,-1.0],"normalized":false,"type":"VEC3"},{"bufferView":3,"componentType":5126,"count":36,"max":[1.0,1.0],"min":[0.0,0.0],"normalized":false,"type":"VEC2"},{"bufferView":4,"componentType":5123,"count":36,"max":[35.0],"min":[0.0],"normalized":false,"type":"SCALAR"},{"bufferView":5,"componentType":5126,"count":564,"max":[2.5,4.13292360305786,0.125],"min":[-2.5,-1.0,-7.20720672607422],"normalized":false,"type":"VEC3"},{"bufferView":6,"componentType":5126,"count":564,"max":[0.947919130325317,0.975879073143005,0.000100816585472785,1.0],"min":[-1.0,-1.0,-1.0,-1.0],"normalized":false,"type":"VEC4"},{"bufferView":7,"componentType":5126,"count":564,"max":[1.0,1.0,1.0],"min":[-1.0,-1.0,-1.0],"normalized":false,"type":"VEC3"},{"bufferView":8,"componentType":5126,"count":564,"max":[1.0,1.0],"min":[0.0,0.0],"normalized":false,"type":"VEC2"},{"bufferView":9,"componentType":5123,"count":564,"max":[563.0],"min":[0.0],"normalized":false,"type":"SCALAR"},{"bufferView":10,"componentType":5126,"count":390,"max":[0.25,0.75,0.25],"min":[-0.25,-0.75,-0.25],"normalized":false,"type":"VEC3"},{"bufferView":11,"componentType":5126,"count":390,"max":[1.0,0.0,1.0,1.0],"min":[-1.0,-0.0000208445126190782,-1.0,1.0],"normalized":false,"type":"VEC4"},{"bufferView":12,"componentType":5126,"count":390,"max":[1.0,1.0,1.0],"min":[-1.0,-1.0,-1.0],"normalized":false,"type":"VEC3"},{"bufferView":13,"componentType":5126,"count":390,"max":[1.0,1.0],"min":[0.0,0.0],"normalized":false,"type":"VEC2"},{"bufferView":14,"componentType":5123,"count":1944,"max":[389.0],"min":[0.0],"normalized":false,"type":"SCALAR"},{"bufferView":15,"componentType":5126,"count":390,"max":[0.25,0.75,0.25],"min":[-0.25,-0.75,-0.25],"normalized":false,"type":"VEC3"},{"bufferView":16,"componentType":5126,"count":390,"max":[1.0,0.0,1.0,1.0],"min":[-1.0,-0.0000208445126190782,-1.0,1.0],"normalized":false,"type":"VEC4"},{"bufferView":17,"componentType":5126,"count":390,"max":[1.0,1.0,1.0],"min":[-1.0,-1.0,-1.0],"normalized":false,"type":"VEC3"},{"bufferView":18,"componentType":5126,"count":390,"max":[1.0,1.0],"min":[0.0,0.0],"normalized":false,"type":"VEC2"},{"bufferView":19,"componentType":5123,"count":1944,"max":[389.0],"min":[0.0],"normalized":false,"type":"SCALAR"}],"asset":{"generator":"Godot Engine v4.5.stable.official@876b290332ec6f2e6d173d08162a02aa7e6ca46d","version":"2.0"},"bufferViews":[{"buffer":0,"byteLength":432,"byteStride":12,"target":34962},{"buffer":0,"byteLength":576,"byteOffset":432,"byteStride":16,"target":34962},{"buffer":0,"byteLength":432,"byteOffset":1008,"byteStride":12,"target":34962},{"buffer":0,"byteLength":288,"byteOffset":1440,"byteStride":8,"target":34962},{"buffer":0,"byteLength":72,"byteOffset":1728,"target":34963},{"buffer":0,"byteLength":6768,"byteOffset":1800,"byteStride":12,"target":34962},{"buffer":0,"byteLength":9024,"byteOffset":8568,"byteStride":16,"target":34962},{"buffer":0,"byteLength":6768,"byteOffset":17592,"byteStride":12,"target":34962},{"buffer":0,"byteLength":4512,"byteOffset":24360,"byteStride":8,"target":34962},{"buffer":0,"byteLength":1128,"byteOffset":28872,"target":34963},{"buffer":0,"byteLength":4680,"byteOffset":30000,"byteStride":12,"target":34962},{"buffer":0,"byteLength":6240,"byteOffset":34680,"byteStride":16,"target":34962},{"buffer":0,"byteLength":4680,"byteOffset":40920,"byteStride":12,"target":34962},{"buffer":0,"byteLength":3120,"byteOffset":45600,"byteStride":8,"target":34962},{"buffer":0,"byteLength":3888,"byteOffset":48720,"target":34963},{"buffer":0,"byteLength":4680,"byteOffset":52608,"byteStride":12,"target":34962},{"buffer":0,"byteLength":6240,"byteOffset":57288,"byteStride":16,"target":34962},{"buffer":0,"byteLength":4680,"byteOffset":63528,"byteStride":12,"target":34962},{"buffer":0,"byteLength":3120,"byteOffset":68208,"byteStride":8,"target":34962},{"buffer":0,"byteLength":3888,"byteOffset":71328,"target":34963}],"buffers":[{"byteLength":75216,"uri":"main_teste_phy0.bin"}],"cameras":[{"perspective":{"yfov":1.30899691581726,"zfar":4000.0,"znear":0.0500000007450581},"type":"perspective"}],"extensions":{"KHR_lights_punctual":{"lights":[{"intensity":0.100000001490116,"type":"directional"}]},"OMI_physics_shape":{"shapes":[{"capsule":{"height":2.0,"radius":0.25732421875},"type":"capsule"}]}},"extensionsUsed":["GODOT_single_root","KHR_lights_punctual","OMI_physics_body","OMI_physics_shape"],"materials":[{},{},{},{}],"meshes":[{"primitives":[{"attributes":{"NORMAL":2,"POSITION":0,"TANGENT":1,"TEXCOORD_0":3},"indices":4,"material":0,"mode":4}]},{"primitives":[{"attributes":{"NORMAL":7,"POSITION":5,"TANGENT":6,"TEXCOORD_0":8},"indices":9,"material":1,"mode":4}]},{"primitives":[{"attributes":{"NORMAL":12,"POSITION":10,"TANGENT":11,"TEXCOORD_0":13},"indices":14,"material":2,"mode":4}]},{"primitives":[{"attributes":{"NORMAL":17,"POSITION":15,"TANGENT":16,"TEXCOORD_0":18},"indices":19,"material":3,"mode":4}]}],"nodes":[{"children":[1,2,3,4,12,13],"name":"mainphy"},{"name":"WorldEnvironment"},{"extensions":{"KHR_lights_punctual":{"light":0}},"name":"DirectionalLight3D","rotation":[0.394870221614838,0.211178570985794,0.8929682970047,-0.0457032732665539]},{"mesh":0,"name":"CSGBox3Dchao2"},{"children":[5,6,7,8,9,10,11],"mesh":1,"name":"CSGCombiner3D2","translation":[0.0,1.0,3.41553831100464]},{"name":"CSGBox3D","translation":[0.0,0.0,-3.41553831100464]},{"name":"CSGBox3D2"},{"name":"CSGBox3D3","translation":[0.0,0.0,-7.08220672607422]},{"name":"CSGBox3D4","translation":[0.327569842338562,1.63292360305786,-1.58899998664856]},{"name":"CSGBox3D5","rotation":[0.0,-0.223768979310989,0.0,0.974642217159271],"translation":[1.03059709072113,1.63292360305786,-1.58899998664856]},{"name":"CSGBox3D6","rotation":[0.0,-0.223768979310989,0.0,0.974642217159271],"translation":[-0.707668781280518,1.63292360305786,-1.58899998664856]},{"name":"CSGCylinder3D","rotation":[-0.691503167152405,-0.14772792160511,0.147727936506271,0.69150298833847],"scale":[1.58691024780273,4.17141342163086,1.88789343833923],"translation":[0.0,-0.205057740211487,-3.16625642776489]},{"camera":0,"name":"Camera3D","rotation":[-0.253385871648788,0.377567529678345,0.108219392597675,0.884040117263794],"translation":[2.97001123428345,3.30915689468384,3.5831995010376]},{"children":[14,17],"name":"Node3Dphy","translation":[-0.925449848175049,0.81810188293457,0.0]},{"children":[15,16],"extensions":{"OMI_physics_body":{"motion":{"mass":0.0500000007450581,"type":"dynamic"}}},"name":"Phymesh","rotation":[0.0,0.0,0.253521591424942,0.967329740524292],"translation":[1.98412728309631,3.83266425132751,2.25770425796509]},{"mesh":2,"name":"MeshInstance3D"},{"extensions":{"OMI_physics_body":{"collider":{"shape":0}}},"name":"CollisionShape3D","scale":[1.0,0.757679581642151,1.0]},{"children":[18,19],"extensions":{"OMI_physics_body":{"motion":{"mass":0.0500000007450581,"type":"dynamic"}}},"name":"Phymesh2","rotation":[-0.115377172827721,-0.0175573155283928,-0.149413287639618,0.98186331987381],"translation":[1.98412728309631,3.83266425132751,3.0018515586853]},{"mesh":3,"name":"MeshInstance3D2"},{"extensions":{"OMI_physics_body":{"collider":{"shape":0}}},"name":"CollisionShape3D2","scale":[1.0,0.757679581642151,1.0]}],"scene":0,"scenes":[{"nodes":[0]}]}